<svg version="1.1" id="Layer_1" xmlns="http://www.w3.org/2000/svg" xmlns:xlink="http://www.w3.org/1999/xlink" x="0px" y="0px"
	 width="100%" viewBox="0 0 640 640" enable-background="new 0 0 640 640" xml:space="preserve">
<path fill="#000000" opacity="1.000000" stroke="none" 
	d="
M320.000000,641.000000 
	C213.333359,641.000000 107.166702,641.000000 1.000043,641.000000 
	C1.000028,427.666718 1.000028,214.333450 1.000014,1.000129 
	C214.333237,1.000086 427.666473,1.000086 640.999756,1.000043 
	C640.999878,214.333191 640.999878,427.666382 640.999939,640.999756 
	C534.166687,641.000000 427.333344,641.000000 320.000000,641.000000 
M352.795624,301.682648 
	C352.795624,369.484467 352.795624,437.286285 352.795624,506.395691 
	C355.787903,504.164917 357.403900,503.024811 358.950653,501.797485 
	C394.444214,473.634308 429.908356,445.433929 465.458893,417.342926 
	C468.330383,415.073944 469.641968,412.720276 469.637360,408.974365 
	C469.543579,332.984344 469.525818,256.994110 469.677521,181.004272 
	C469.687408,176.054108 468.079041,174.963699 463.409088,174.971817 
	C387.919128,175.103027 312.428864,175.081863 236.938782,174.994949 
	C233.473282,174.990952 231.100586,175.900803 228.887665,178.699966 
	C200.064041,215.159500 171.123550,251.526642 142.233643,287.933807 
	C141.269470,289.148865 140.527542,290.540283 139.035248,292.850952 
	C142.501526,292.850952 144.777115,292.850922 147.052704,292.850952 
	C213.044128,292.851990 279.035553,292.852112 345.026978,292.855255 
	C352.780396,292.855621 352.780396,292.863312 352.795624,301.682648 
z"/>
<path fill="#C305EE" opacity="1.000000" stroke="none" 
	d="
M352.795471,301.205505 
	C352.780396,292.863312 352.780396,292.855621 345.026978,292.855255 
	C279.035553,292.852112 213.044128,292.851990 147.052704,292.850952 
	C144.777115,292.850922 142.501526,292.850952 139.035248,292.850952 
	C140.527542,290.540283 141.269470,289.148865 142.233643,287.933807 
	C171.123550,251.526642 200.064041,215.159500 228.887665,178.699966 
	C231.100586,175.900803 233.473282,174.990952 236.938782,174.994949 
	C312.428864,175.081863 387.919128,175.103027 463.409088,174.971817 
	C468.079041,174.963699 469.687408,176.054108 469.677521,181.004272 
	C469.525818,256.994110 469.543579,332.984344 469.637360,408.974365 
	C469.641968,412.720276 468.330383,415.073944 465.458893,417.342926 
	C429.908356,445.433929 394.444214,473.634308 358.950653,501.797485 
	C357.403900,503.024811 355.787903,504.164917 352.795624,506.395691 
	C352.795624,437.286285 352.795624,369.484467 352.795471,301.205505 
z"/>
</svg>